G04 #@! TF.FileFunction,Legend,Top*
%FSLAX46Y46*%
G04 Gerber Fmt 4.6, Leading zero omitted, Abs format (unit mm)*
G04 Created by KiCad (PCBNEW 4.0.7) date 03/26/19 14:41:24*
%MOMM*%
%LPD*%
G01*
G04 APERTURE LIST*
%ADD10C,0.100000*%
%ADD11C,0.120000*%
%ADD12C,0.150000*%
G04 APERTURE END LIST*
D10*
D11*
X95400000Y-42000000D02*
G75*
G03X95400000Y-42000000I-7600000J0D01*
G01*
X69150000Y-53500000D02*
X69150000Y-54500000D01*
X70850000Y-54500000D02*
X70850000Y-53500000D01*
X69790000Y-40640000D02*
X69790000Y-43360000D01*
X69790000Y-43360000D02*
X73710000Y-43360000D01*
X73710000Y-43360000D02*
X73710000Y-40640000D01*
X73710000Y-40640000D02*
X69790000Y-40640000D01*
X68980000Y-42000000D02*
X69790000Y-42000000D01*
X74520000Y-42000000D02*
X73710000Y-42000000D01*
X78210000Y-73360000D02*
X78210000Y-70640000D01*
X78210000Y-70640000D02*
X74290000Y-70640000D01*
X74290000Y-70640000D02*
X74290000Y-73360000D01*
X74290000Y-73360000D02*
X78210000Y-73360000D01*
X79020000Y-72000000D02*
X78210000Y-72000000D01*
X73480000Y-72000000D02*
X74290000Y-72000000D01*
X66250000Y-67850000D02*
X66250000Y-71050000D01*
X64750000Y-71050000D02*
X64750000Y-67850000D01*
X64750000Y-71050000D02*
X66250000Y-71050000D01*
X109750000Y-63000000D02*
X109750000Y-66200000D01*
X108250000Y-66200000D02*
X108250000Y-63000000D01*
X108250000Y-66200000D02*
X109750000Y-66200000D01*
X112750000Y-63000000D02*
X112750000Y-66200000D01*
X111250000Y-66200000D02*
X111250000Y-63000000D01*
X111250000Y-66200000D02*
X112750000Y-66200000D01*
X59670000Y-56870000D02*
X62330000Y-56870000D01*
X59670000Y-54270000D02*
X59670000Y-56870000D01*
X62330000Y-54270000D02*
X62330000Y-56870000D01*
X59670000Y-54270000D02*
X62330000Y-54270000D01*
X59670000Y-53000000D02*
X59670000Y-51670000D01*
X59670000Y-51670000D02*
X61000000Y-51670000D01*
X99950000Y-70330000D02*
X99950000Y-65130000D01*
X92270000Y-70330000D02*
X99950000Y-70330000D01*
X89670000Y-65130000D02*
X99950000Y-65130000D01*
X92270000Y-70330000D02*
X92270000Y-67730000D01*
X92270000Y-67730000D02*
X89670000Y-67730000D01*
X89670000Y-67730000D02*
X89670000Y-65130000D01*
X91000000Y-70330000D02*
X89670000Y-70330000D01*
X89670000Y-70330000D02*
X89670000Y-69000000D01*
X93410000Y-82330000D02*
X93410000Y-79670000D01*
X88270000Y-82330000D02*
X93410000Y-82330000D01*
X88270000Y-79670000D02*
X93410000Y-79670000D01*
X88270000Y-82330000D02*
X88270000Y-79670000D01*
X87000000Y-82330000D02*
X85670000Y-82330000D01*
X85670000Y-82330000D02*
X85670000Y-81000000D01*
X85590000Y-28670000D02*
X85590000Y-31330000D01*
X90730000Y-28670000D02*
X85590000Y-28670000D01*
X90730000Y-31330000D02*
X85590000Y-31330000D01*
X90730000Y-28670000D02*
X90730000Y-31330000D01*
X92000000Y-28670000D02*
X93330000Y-28670000D01*
X93330000Y-28670000D02*
X93330000Y-30000000D01*
X105150000Y-38470000D02*
X105150000Y-42070000D01*
X105161522Y-38431522D02*
G75*
G02X109600000Y-40270000I1838478J-1838478D01*
G01*
X105161522Y-42108478D02*
G75*
G03X109600000Y-40270000I1838478J1838478D01*
G01*
X64620000Y-63100000D02*
X64620000Y-61900000D01*
X66380000Y-61900000D02*
X66380000Y-63100000D01*
X109880000Y-57400000D02*
X109880000Y-58600000D01*
X108120000Y-58600000D02*
X108120000Y-57400000D01*
X112880000Y-57400000D02*
X112880000Y-58600000D01*
X111120000Y-58600000D02*
X111120000Y-57400000D01*
X84880000Y-61400000D02*
X84880000Y-62600000D01*
X83120000Y-62600000D02*
X83120000Y-61400000D01*
X100400000Y-33120000D02*
X101600000Y-33120000D01*
X101600000Y-34880000D02*
X100400000Y-34880000D01*
X109600000Y-49880000D02*
X108400000Y-49880000D01*
X108400000Y-48120000D02*
X109600000Y-48120000D01*
X80910000Y-57410000D02*
X80910000Y-56150000D01*
X80910000Y-50590000D02*
X80910000Y-51850000D01*
X77150000Y-57410000D02*
X80910000Y-57410000D01*
X74900000Y-50590000D02*
X80910000Y-50590000D01*
X108410000Y-76330000D02*
X108410000Y-73670000D01*
X103270000Y-76330000D02*
X108410000Y-76330000D01*
X103270000Y-73670000D02*
X108410000Y-73670000D01*
X103270000Y-76330000D02*
X103270000Y-73670000D01*
X102000000Y-76330000D02*
X100670000Y-76330000D01*
X100670000Y-76330000D02*
X100670000Y-75000000D01*
X105410000Y-54330000D02*
X105410000Y-51670000D01*
X100270000Y-54330000D02*
X105410000Y-54330000D01*
X100270000Y-51670000D02*
X105410000Y-51670000D01*
X100270000Y-54330000D02*
X100270000Y-51670000D01*
X99000000Y-54330000D02*
X97670000Y-54330000D01*
X97670000Y-54330000D02*
X97670000Y-53000000D01*
X79330000Y-29590000D02*
X76670000Y-29590000D01*
X79330000Y-34730000D02*
X79330000Y-29590000D01*
X76670000Y-34730000D02*
X76670000Y-29590000D01*
X79330000Y-34730000D02*
X76670000Y-34730000D01*
X79330000Y-36000000D02*
X79330000Y-37330000D01*
X79330000Y-37330000D02*
X78000000Y-37330000D01*
D12*
X86929048Y-33038571D02*
X87071905Y-33086190D01*
X87119524Y-33133810D01*
X87167143Y-33229048D01*
X87167143Y-33371905D01*
X87119524Y-33467143D01*
X87071905Y-33514762D01*
X86976667Y-33562381D01*
X86595714Y-33562381D01*
X86595714Y-32562381D01*
X86929048Y-32562381D01*
X87024286Y-32610000D01*
X87071905Y-32657619D01*
X87119524Y-32752857D01*
X87119524Y-32848095D01*
X87071905Y-32943333D01*
X87024286Y-32990952D01*
X86929048Y-33038571D01*
X86595714Y-33038571D01*
X87500476Y-32562381D02*
X88167143Y-32562381D01*
X87500476Y-33562381D01*
X88167143Y-33562381D01*
X89071905Y-33562381D02*
X88500476Y-33562381D01*
X88786190Y-33562381D02*
X88786190Y-32562381D01*
X88690952Y-32705238D01*
X88595714Y-32800476D01*
X88500476Y-32848095D01*
X83609048Y-39531429D02*
X84370953Y-39531429D01*
X83990001Y-39912381D02*
X83990001Y-39150476D01*
X68607143Y-54166666D02*
X68654762Y-54214285D01*
X68702381Y-54357142D01*
X68702381Y-54452380D01*
X68654762Y-54595238D01*
X68559524Y-54690476D01*
X68464286Y-54738095D01*
X68273810Y-54785714D01*
X68130952Y-54785714D01*
X67940476Y-54738095D01*
X67845238Y-54690476D01*
X67750000Y-54595238D01*
X67702381Y-54452380D01*
X67702381Y-54357142D01*
X67750000Y-54214285D01*
X67797619Y-54166666D01*
X68702381Y-53214285D02*
X68702381Y-53785714D01*
X68702381Y-53500000D02*
X67702381Y-53500000D01*
X67845238Y-53595238D01*
X67940476Y-53690476D01*
X67988095Y-53785714D01*
X71583334Y-39997143D02*
X71535715Y-40044762D01*
X71392858Y-40092381D01*
X71297620Y-40092381D01*
X71154762Y-40044762D01*
X71059524Y-39949524D01*
X71011905Y-39854286D01*
X70964286Y-39663810D01*
X70964286Y-39520952D01*
X71011905Y-39330476D01*
X71059524Y-39235238D01*
X71154762Y-39140000D01*
X71297620Y-39092381D01*
X71392858Y-39092381D01*
X71535715Y-39140000D01*
X71583334Y-39187619D01*
X71964286Y-39187619D02*
X72011905Y-39140000D01*
X72107143Y-39092381D01*
X72345239Y-39092381D01*
X72440477Y-39140000D01*
X72488096Y-39187619D01*
X72535715Y-39282857D01*
X72535715Y-39378095D01*
X72488096Y-39520952D01*
X71916667Y-40092381D01*
X72535715Y-40092381D01*
X76083334Y-74717143D02*
X76035715Y-74764762D01*
X75892858Y-74812381D01*
X75797620Y-74812381D01*
X75654762Y-74764762D01*
X75559524Y-74669524D01*
X75511905Y-74574286D01*
X75464286Y-74383810D01*
X75464286Y-74240952D01*
X75511905Y-74050476D01*
X75559524Y-73955238D01*
X75654762Y-73860000D01*
X75797620Y-73812381D01*
X75892858Y-73812381D01*
X76035715Y-73860000D01*
X76083334Y-73907619D01*
X76940477Y-74145714D02*
X76940477Y-74812381D01*
X76702381Y-73764762D02*
X76464286Y-74479048D01*
X77083334Y-74479048D01*
X64252381Y-69588095D02*
X63252381Y-69588095D01*
X63252381Y-69350000D01*
X63300000Y-69207142D01*
X63395238Y-69111904D01*
X63490476Y-69064285D01*
X63680952Y-69016666D01*
X63823810Y-69016666D01*
X64014286Y-69064285D01*
X64109524Y-69111904D01*
X64204762Y-69207142D01*
X64252381Y-69350000D01*
X64252381Y-69588095D01*
X64252381Y-68064285D02*
X64252381Y-68635714D01*
X64252381Y-68350000D02*
X63252381Y-68350000D01*
X63395238Y-68445238D01*
X63490476Y-68540476D01*
X63538095Y-68635714D01*
X107752381Y-64738095D02*
X106752381Y-64738095D01*
X106752381Y-64500000D01*
X106800000Y-64357142D01*
X106895238Y-64261904D01*
X106990476Y-64214285D01*
X107180952Y-64166666D01*
X107323810Y-64166666D01*
X107514286Y-64214285D01*
X107609524Y-64261904D01*
X107704762Y-64357142D01*
X107752381Y-64500000D01*
X107752381Y-64738095D01*
X106847619Y-63785714D02*
X106800000Y-63738095D01*
X106752381Y-63642857D01*
X106752381Y-63404761D01*
X106800000Y-63309523D01*
X106847619Y-63261904D01*
X106942857Y-63214285D01*
X107038095Y-63214285D01*
X107180952Y-63261904D01*
X107752381Y-63833333D01*
X107752381Y-63214285D01*
X110752381Y-64738095D02*
X109752381Y-64738095D01*
X109752381Y-64500000D01*
X109800000Y-64357142D01*
X109895238Y-64261904D01*
X109990476Y-64214285D01*
X110180952Y-64166666D01*
X110323810Y-64166666D01*
X110514286Y-64214285D01*
X110609524Y-64261904D01*
X110704762Y-64357142D01*
X110752381Y-64500000D01*
X110752381Y-64738095D01*
X109752381Y-63833333D02*
X109752381Y-63214285D01*
X110133333Y-63547619D01*
X110133333Y-63404761D01*
X110180952Y-63309523D01*
X110228571Y-63261904D01*
X110323810Y-63214285D01*
X110561905Y-63214285D01*
X110657143Y-63261904D01*
X110704762Y-63309523D01*
X110752381Y-63404761D01*
X110752381Y-63690476D01*
X110704762Y-63785714D01*
X110657143Y-63833333D01*
X60666667Y-50122381D02*
X60666667Y-50836667D01*
X60619047Y-50979524D01*
X60523809Y-51074762D01*
X60380952Y-51122381D01*
X60285714Y-51122381D01*
X61666667Y-51122381D02*
X61095238Y-51122381D01*
X61380952Y-51122381D02*
X61380952Y-50122381D01*
X61285714Y-50265238D01*
X61190476Y-50360476D01*
X61095238Y-50408095D01*
X88122381Y-68063333D02*
X88836667Y-68063333D01*
X88979524Y-68110953D01*
X89074762Y-68206191D01*
X89122381Y-68349048D01*
X89122381Y-68444286D01*
X88217619Y-67634762D02*
X88170000Y-67587143D01*
X88122381Y-67491905D01*
X88122381Y-67253809D01*
X88170000Y-67158571D01*
X88217619Y-67110952D01*
X88312857Y-67063333D01*
X88408095Y-67063333D01*
X88550952Y-67110952D01*
X89122381Y-67682381D01*
X89122381Y-67063333D01*
X84122381Y-81333333D02*
X84836667Y-81333333D01*
X84979524Y-81380953D01*
X85074762Y-81476191D01*
X85122381Y-81619048D01*
X85122381Y-81714286D01*
X84122381Y-80952381D02*
X84122381Y-80333333D01*
X84503333Y-80666667D01*
X84503333Y-80523809D01*
X84550952Y-80428571D01*
X84598571Y-80380952D01*
X84693810Y-80333333D01*
X84931905Y-80333333D01*
X85027143Y-80380952D01*
X85074762Y-80428571D01*
X85122381Y-80523809D01*
X85122381Y-80809524D01*
X85074762Y-80904762D01*
X85027143Y-80952381D01*
X93782381Y-30333333D02*
X94496667Y-30333333D01*
X94639524Y-30380953D01*
X94734762Y-30476191D01*
X94782381Y-30619048D01*
X94782381Y-30714286D01*
X94115714Y-29428571D02*
X94782381Y-29428571D01*
X93734762Y-29666667D02*
X94449048Y-29904762D01*
X94449048Y-29285714D01*
X111107619Y-40365238D02*
X111060000Y-40460476D01*
X110964762Y-40555714D01*
X110821905Y-40698571D01*
X110774286Y-40793810D01*
X110774286Y-40889048D01*
X111012381Y-40841429D02*
X110964762Y-40936667D01*
X110869524Y-41031905D01*
X110679048Y-41079524D01*
X110345714Y-41079524D01*
X110155238Y-41031905D01*
X110060000Y-40936667D01*
X110012381Y-40841429D01*
X110012381Y-40650952D01*
X110060000Y-40555714D01*
X110155238Y-40460476D01*
X110345714Y-40412857D01*
X110679048Y-40412857D01*
X110869524Y-40460476D01*
X110964762Y-40555714D01*
X111012381Y-40650952D01*
X111012381Y-40841429D01*
X111012381Y-39460476D02*
X111012381Y-40031905D01*
X111012381Y-39746191D02*
X110012381Y-39746191D01*
X110155238Y-39841429D01*
X110250476Y-39936667D01*
X110298095Y-40031905D01*
X67652381Y-62666666D02*
X67176190Y-63000000D01*
X67652381Y-63238095D02*
X66652381Y-63238095D01*
X66652381Y-62857142D01*
X66700000Y-62761904D01*
X66747619Y-62714285D01*
X66842857Y-62666666D01*
X66985714Y-62666666D01*
X67080952Y-62714285D01*
X67128571Y-62761904D01*
X67176190Y-62857142D01*
X67176190Y-63238095D01*
X67652381Y-61714285D02*
X67652381Y-62285714D01*
X67652381Y-62000000D02*
X66652381Y-62000000D01*
X66795238Y-62095238D01*
X66890476Y-62190476D01*
X66938095Y-62285714D01*
X107752381Y-58166666D02*
X107276190Y-58500000D01*
X107752381Y-58738095D02*
X106752381Y-58738095D01*
X106752381Y-58357142D01*
X106800000Y-58261904D01*
X106847619Y-58214285D01*
X106942857Y-58166666D01*
X107085714Y-58166666D01*
X107180952Y-58214285D01*
X107228571Y-58261904D01*
X107276190Y-58357142D01*
X107276190Y-58738095D01*
X106847619Y-57785714D02*
X106800000Y-57738095D01*
X106752381Y-57642857D01*
X106752381Y-57404761D01*
X106800000Y-57309523D01*
X106847619Y-57261904D01*
X106942857Y-57214285D01*
X107038095Y-57214285D01*
X107180952Y-57261904D01*
X107752381Y-57833333D01*
X107752381Y-57214285D01*
X110752381Y-58166666D02*
X110276190Y-58500000D01*
X110752381Y-58738095D02*
X109752381Y-58738095D01*
X109752381Y-58357142D01*
X109800000Y-58261904D01*
X109847619Y-58214285D01*
X109942857Y-58166666D01*
X110085714Y-58166666D01*
X110180952Y-58214285D01*
X110228571Y-58261904D01*
X110276190Y-58357142D01*
X110276190Y-58738095D01*
X109752381Y-57833333D02*
X109752381Y-57214285D01*
X110133333Y-57547619D01*
X110133333Y-57404761D01*
X110180952Y-57309523D01*
X110228571Y-57261904D01*
X110323810Y-57214285D01*
X110561905Y-57214285D01*
X110657143Y-57261904D01*
X110704762Y-57309523D01*
X110752381Y-57404761D01*
X110752381Y-57690476D01*
X110704762Y-57785714D01*
X110657143Y-57833333D01*
X82752381Y-62166666D02*
X82276190Y-62500000D01*
X82752381Y-62738095D02*
X81752381Y-62738095D01*
X81752381Y-62357142D01*
X81800000Y-62261904D01*
X81847619Y-62214285D01*
X81942857Y-62166666D01*
X82085714Y-62166666D01*
X82180952Y-62214285D01*
X82228571Y-62261904D01*
X82276190Y-62357142D01*
X82276190Y-62738095D01*
X82085714Y-61309523D02*
X82752381Y-61309523D01*
X81704762Y-61547619D02*
X82419048Y-61785714D01*
X82419048Y-61166666D01*
X100833334Y-36152381D02*
X100500000Y-35676190D01*
X100261905Y-36152381D02*
X100261905Y-35152381D01*
X100642858Y-35152381D01*
X100738096Y-35200000D01*
X100785715Y-35247619D01*
X100833334Y-35342857D01*
X100833334Y-35485714D01*
X100785715Y-35580952D01*
X100738096Y-35628571D01*
X100642858Y-35676190D01*
X100261905Y-35676190D01*
X101738096Y-35152381D02*
X101261905Y-35152381D01*
X101214286Y-35628571D01*
X101261905Y-35580952D01*
X101357143Y-35533333D01*
X101595239Y-35533333D01*
X101690477Y-35580952D01*
X101738096Y-35628571D01*
X101785715Y-35723810D01*
X101785715Y-35961905D01*
X101738096Y-36057143D01*
X101690477Y-36104762D01*
X101595239Y-36152381D01*
X101357143Y-36152381D01*
X101261905Y-36104762D01*
X101214286Y-36057143D01*
X108833334Y-47752381D02*
X108500000Y-47276190D01*
X108261905Y-47752381D02*
X108261905Y-46752381D01*
X108642858Y-46752381D01*
X108738096Y-46800000D01*
X108785715Y-46847619D01*
X108833334Y-46942857D01*
X108833334Y-47085714D01*
X108785715Y-47180952D01*
X108738096Y-47228571D01*
X108642858Y-47276190D01*
X108261905Y-47276190D01*
X109690477Y-46752381D02*
X109500000Y-46752381D01*
X109404762Y-46800000D01*
X109357143Y-46847619D01*
X109261905Y-46990476D01*
X109214286Y-47180952D01*
X109214286Y-47561905D01*
X109261905Y-47657143D01*
X109309524Y-47704762D01*
X109404762Y-47752381D01*
X109595239Y-47752381D01*
X109690477Y-47704762D01*
X109738096Y-47657143D01*
X109785715Y-47561905D01*
X109785715Y-47323810D01*
X109738096Y-47228571D01*
X109690477Y-47180952D01*
X109595239Y-47133333D01*
X109404762Y-47133333D01*
X109309524Y-47180952D01*
X109261905Y-47228571D01*
X109214286Y-47323810D01*
X78238095Y-48952381D02*
X78238095Y-49761905D01*
X78285714Y-49857143D01*
X78333333Y-49904762D01*
X78428571Y-49952381D01*
X78619048Y-49952381D01*
X78714286Y-49904762D01*
X78761905Y-49857143D01*
X78809524Y-49761905D01*
X78809524Y-48952381D01*
X79809524Y-49952381D02*
X79238095Y-49952381D01*
X79523809Y-49952381D02*
X79523809Y-48952381D01*
X79428571Y-49095238D01*
X79333333Y-49190476D01*
X79238095Y-49238095D01*
X99122381Y-75333333D02*
X99836667Y-75333333D01*
X99979524Y-75380953D01*
X100074762Y-75476191D01*
X100122381Y-75619048D01*
X100122381Y-75714286D01*
X99122381Y-74380952D02*
X99122381Y-74857143D01*
X99598571Y-74904762D01*
X99550952Y-74857143D01*
X99503333Y-74761905D01*
X99503333Y-74523809D01*
X99550952Y-74428571D01*
X99598571Y-74380952D01*
X99693810Y-74333333D01*
X99931905Y-74333333D01*
X100027143Y-74380952D01*
X100074762Y-74428571D01*
X100122381Y-74523809D01*
X100122381Y-74761905D01*
X100074762Y-74857143D01*
X100027143Y-74904762D01*
X96122381Y-53333333D02*
X96836667Y-53333333D01*
X96979524Y-53380953D01*
X97074762Y-53476191D01*
X97122381Y-53619048D01*
X97122381Y-53714286D01*
X96122381Y-52428571D02*
X96122381Y-52619048D01*
X96170000Y-52714286D01*
X96217619Y-52761905D01*
X96360476Y-52857143D01*
X96550952Y-52904762D01*
X96931905Y-52904762D01*
X97027143Y-52857143D01*
X97074762Y-52809524D01*
X97122381Y-52714286D01*
X97122381Y-52523809D01*
X97074762Y-52428571D01*
X97027143Y-52380952D01*
X96931905Y-52333333D01*
X96693810Y-52333333D01*
X96598571Y-52380952D01*
X96550952Y-52428571D01*
X96503333Y-52523809D01*
X96503333Y-52714286D01*
X96550952Y-52809524D01*
X96598571Y-52857143D01*
X96693810Y-52904762D01*
X77666667Y-37782381D02*
X77666667Y-38496667D01*
X77619047Y-38639524D01*
X77523809Y-38734762D01*
X77380952Y-38782381D01*
X77285714Y-38782381D01*
X78047619Y-37782381D02*
X78714286Y-37782381D01*
X78285714Y-38782381D01*
M02*
