G04 #@! TF.FileFunction,Copper,L2,Bot,Signal*
%FSLAX46Y46*%
G04 Gerber Fmt 4.6, Leading zero omitted, Abs format (unit mm)*
G04 Created by KiCad (PCBNEW 4.0.7) date 03/26/19 14:41:24*
%MOMM*%
%LPD*%
G01*
G04 APERTURE LIST*
%ADD10C,0.100000*%
%ADD11R,2.000000X2.000000*%
%ADD12C,2.000000*%
%ADD13C,1.600000*%
%ADD14O,1.600000X1.600000*%
%ADD15R,1.700000X1.700000*%
%ADD16O,1.700000X1.700000*%
%ADD17C,1.000000*%
%ADD18R,1.000000X1.000000*%
%ADD19C,0.600000*%
%ADD20C,0.250000*%
%ADD21C,0.254000*%
G04 APERTURE END LIST*
D10*
D11*
X84000000Y-42000000D03*
D12*
X91600000Y-42000000D03*
D13*
X68000000Y-42000000D03*
D14*
X75500000Y-42000000D03*
D13*
X80000000Y-72000000D03*
D14*
X72500000Y-72000000D03*
D15*
X61000000Y-53000000D03*
D16*
X61000000Y-55540000D03*
D15*
X91000000Y-69000000D03*
D16*
X91000000Y-66460000D03*
X93540000Y-69000000D03*
X93540000Y-66460000D03*
X96080000Y-69000000D03*
X96080000Y-66460000D03*
X98620000Y-69000000D03*
X98620000Y-66460000D03*
D15*
X87000000Y-81000000D03*
D16*
X89540000Y-81000000D03*
X92080000Y-81000000D03*
D15*
X92000000Y-30000000D03*
D16*
X89460000Y-30000000D03*
X86920000Y-30000000D03*
D17*
X108270000Y-40270000D03*
X107000000Y-41540000D03*
D18*
X107000000Y-39000000D03*
D15*
X102000000Y-75000000D03*
D16*
X104540000Y-75000000D03*
X107080000Y-75000000D03*
D15*
X99000000Y-53000000D03*
D16*
X101540000Y-53000000D03*
X104080000Y-53000000D03*
D15*
X78000000Y-36000000D03*
D16*
X78000000Y-33460000D03*
X78000000Y-30920000D03*
D19*
X95000000Y-73500000D03*
X98000000Y-73000000D03*
X82500000Y-53500000D03*
X82000000Y-57000000D03*
X80000000Y-52000000D03*
X74000000Y-54000000D03*
X73000000Y-58000000D03*
X105000000Y-50000000D03*
X98000000Y-43000000D03*
X69500000Y-49500000D03*
X68000000Y-52000000D03*
X63000000Y-70000000D03*
X67000000Y-72000000D03*
X79000000Y-40000000D03*
X88000000Y-74000000D03*
X85000000Y-63000000D03*
X86000000Y-54500000D03*
X80500000Y-37000000D03*
X88000000Y-63000000D03*
X115000000Y-57000000D03*
X111000000Y-54000000D03*
X103000000Y-58000000D03*
X100500000Y-68000000D03*
D20*
X93540000Y-69000000D02*
X93540000Y-72040000D01*
X93540000Y-72040000D02*
X95000000Y-73500000D01*
X98620000Y-69000000D02*
X98620000Y-72380000D01*
X98620000Y-72380000D02*
X98000000Y-73000000D01*
X93540000Y-69000000D02*
X93540000Y-70540000D01*
X96620000Y-71000000D02*
X98620000Y-69000000D01*
X94000000Y-71000000D02*
X96620000Y-71000000D01*
X93540000Y-70540000D02*
X94000000Y-71000000D01*
X102000000Y-75000000D02*
X102000000Y-72380000D01*
X102000000Y-72380000D02*
X98620000Y-69000000D01*
X78000000Y-36000000D02*
X73000000Y-36000000D01*
X68000000Y-41000000D02*
X68000000Y-42000000D01*
X73000000Y-36000000D02*
X68000000Y-41000000D01*
X99000000Y-53000000D02*
X83000000Y-53000000D01*
X83000000Y-53000000D02*
X82500000Y-53500000D01*
X73000000Y-55000000D02*
X74000000Y-54000000D01*
X73000000Y-58000000D02*
X73000000Y-55000000D01*
X98000000Y-43000000D02*
X105000000Y-50000000D01*
X78000000Y-30920000D02*
X86000000Y-30920000D01*
X86000000Y-30920000D02*
X86920000Y-30000000D01*
X104080000Y-53000000D02*
X106000000Y-53000000D01*
X108000000Y-42540000D02*
X107000000Y-41540000D01*
X108000000Y-51000000D02*
X108000000Y-42540000D01*
X106000000Y-53000000D02*
X108000000Y-51000000D01*
X72500000Y-72000000D02*
X72500000Y-71500000D01*
X72500000Y-71500000D02*
X79000000Y-65000000D01*
X88540000Y-65000000D02*
X91000000Y-66460000D01*
X79000000Y-65000000D02*
X88540000Y-65000000D01*
X61000000Y-53000000D02*
X62000000Y-53000000D01*
X63000000Y-54000000D02*
X63000000Y-70000000D01*
X62000000Y-53000000D02*
X63000000Y-54000000D01*
X72500000Y-72000000D02*
X67000000Y-72000000D01*
X91000000Y-66460000D02*
X86540000Y-66460000D01*
X86540000Y-66460000D02*
X83000000Y-70000000D01*
X83000000Y-70000000D02*
X83000000Y-73000000D01*
X83000000Y-73000000D02*
X86000000Y-76000000D01*
X86000000Y-76000000D02*
X90000000Y-76000000D01*
X90000000Y-76000000D02*
X92080000Y-78080000D01*
X92080000Y-78080000D02*
X92080000Y-81000000D01*
X89460000Y-30000000D02*
X92000000Y-30000000D01*
X86920000Y-32080000D02*
X86920000Y-30000000D01*
X79000000Y-40000000D02*
X86920000Y-32080000D01*
X86920000Y-30000000D02*
X89460000Y-30000000D01*
X91000000Y-69000000D02*
X90000000Y-72000000D01*
X90000000Y-72000000D02*
X88000000Y-74000000D01*
X78000000Y-33460000D02*
X79460000Y-33460000D01*
X86000000Y-62000000D02*
X85000000Y-63000000D01*
X86000000Y-54500000D02*
X86000000Y-62000000D01*
X80500000Y-34500000D02*
X80500000Y-37000000D01*
X79460000Y-33460000D02*
X80500000Y-34500000D01*
X90080000Y-64000000D02*
X93540000Y-66460000D01*
X89000000Y-64000000D02*
X90080000Y-64000000D01*
X88000000Y-63000000D02*
X89000000Y-64000000D01*
X104540000Y-75000000D02*
X104540000Y-67460000D01*
X104540000Y-67460000D02*
X115000000Y-57000000D01*
X107000000Y-54000000D02*
X111000000Y-54000000D01*
X103000000Y-58000000D02*
X107000000Y-54000000D01*
X101540000Y-66960000D02*
X101540000Y-53000000D01*
X100500000Y-68000000D02*
X101540000Y-66960000D01*
D21*
G36*
X72873000Y-53873000D02*
X62485000Y-53873000D01*
X62485000Y-53285750D01*
X62326250Y-53127000D01*
X61127000Y-53127000D01*
X61127000Y-53147000D01*
X60873000Y-53147000D01*
X60873000Y-53127000D01*
X60853000Y-53127000D01*
X60853000Y-52873000D01*
X60873000Y-52873000D01*
X60873000Y-51673750D01*
X61127000Y-51673750D01*
X61127000Y-52873000D01*
X62326250Y-52873000D01*
X62485000Y-52714250D01*
X62485000Y-52023690D01*
X62388327Y-51790301D01*
X62209698Y-51611673D01*
X61976309Y-51515000D01*
X61285750Y-51515000D01*
X61127000Y-51673750D01*
X60873000Y-51673750D01*
X60714250Y-51515000D01*
X60127000Y-51515000D01*
X60127000Y-49716487D01*
X60443169Y-48127000D01*
X72873000Y-48127000D01*
X72873000Y-53873000D01*
X72873000Y-53873000D01*
G37*
X72873000Y-53873000D02*
X62485000Y-53873000D01*
X62485000Y-53285750D01*
X62326250Y-53127000D01*
X61127000Y-53127000D01*
X61127000Y-53147000D01*
X60873000Y-53147000D01*
X60873000Y-53127000D01*
X60853000Y-53127000D01*
X60853000Y-52873000D01*
X60873000Y-52873000D01*
X60873000Y-51673750D01*
X61127000Y-51673750D01*
X61127000Y-52873000D01*
X62326250Y-52873000D01*
X62485000Y-52714250D01*
X62485000Y-52023690D01*
X62388327Y-51790301D01*
X62209698Y-51611673D01*
X61976309Y-51515000D01*
X61285750Y-51515000D01*
X61127000Y-51673750D01*
X60873000Y-51673750D01*
X60714250Y-51515000D01*
X60127000Y-51515000D01*
X60127000Y-49716487D01*
X60443169Y-48127000D01*
X72873000Y-48127000D01*
X72873000Y-53873000D01*
G36*
X83873000Y-57873000D02*
X78127000Y-57873000D01*
X78127000Y-55000000D01*
X78116994Y-54950590D01*
X78088553Y-54908965D01*
X78046159Y-54881685D01*
X78000000Y-54873000D01*
X75127000Y-54873000D01*
X75127000Y-53127000D01*
X78000000Y-53127000D01*
X78049410Y-53116994D01*
X78091035Y-53088553D01*
X78118315Y-53046159D01*
X78127000Y-53000000D01*
X78127000Y-46127000D01*
X83873000Y-46127000D01*
X83873000Y-57873000D01*
X83873000Y-57873000D01*
G37*
X83873000Y-57873000D02*
X78127000Y-57873000D01*
X78127000Y-55000000D01*
X78116994Y-54950590D01*
X78088553Y-54908965D01*
X78046159Y-54881685D01*
X78000000Y-54873000D01*
X75127000Y-54873000D01*
X75127000Y-53127000D01*
X78000000Y-53127000D01*
X78049410Y-53116994D01*
X78091035Y-53088553D01*
X78118315Y-53046159D01*
X78127000Y-53000000D01*
X78127000Y-46127000D01*
X83873000Y-46127000D01*
X83873000Y-57873000D01*
G36*
X95873000Y-28443169D02*
X95873000Y-37873000D01*
X82127000Y-37873000D01*
X82127000Y-30356892D01*
X85478514Y-30356892D01*
X85724817Y-30881358D01*
X86153076Y-31271645D01*
X86563110Y-31441476D01*
X86793000Y-31320155D01*
X86793000Y-30127000D01*
X87047000Y-30127000D01*
X87047000Y-31320155D01*
X87276890Y-31441476D01*
X87686924Y-31271645D01*
X88115183Y-30881358D01*
X88190000Y-30722046D01*
X88264817Y-30881358D01*
X88693076Y-31271645D01*
X89103110Y-31441476D01*
X89333000Y-31320155D01*
X89333000Y-30127000D01*
X89587000Y-30127000D01*
X89587000Y-31320155D01*
X89816890Y-31441476D01*
X90226924Y-31271645D01*
X90524864Y-31000122D01*
X90611673Y-31209698D01*
X90790301Y-31388327D01*
X91023690Y-31485000D01*
X91714250Y-31485000D01*
X91873000Y-31326250D01*
X91873000Y-30127000D01*
X92127000Y-30127000D01*
X92127000Y-31326250D01*
X92285750Y-31485000D01*
X92976310Y-31485000D01*
X93209699Y-31388327D01*
X93388327Y-31209698D01*
X93485000Y-30976309D01*
X93485000Y-30285750D01*
X93326250Y-30127000D01*
X92127000Y-30127000D01*
X91873000Y-30127000D01*
X89587000Y-30127000D01*
X89333000Y-30127000D01*
X87047000Y-30127000D01*
X86793000Y-30127000D01*
X85599181Y-30127000D01*
X85478514Y-30356892D01*
X82127000Y-30356892D01*
X82127000Y-29643108D01*
X85478514Y-29643108D01*
X85599181Y-29873000D01*
X86793000Y-29873000D01*
X86793000Y-28679845D01*
X87047000Y-28679845D01*
X87047000Y-29873000D01*
X89333000Y-29873000D01*
X89333000Y-28679845D01*
X89587000Y-28679845D01*
X89587000Y-29873000D01*
X91873000Y-29873000D01*
X91873000Y-28673750D01*
X92127000Y-28673750D01*
X92127000Y-29873000D01*
X93326250Y-29873000D01*
X93485000Y-29714250D01*
X93485000Y-29023691D01*
X93388327Y-28790302D01*
X93209699Y-28611673D01*
X92976310Y-28515000D01*
X92285750Y-28515000D01*
X92127000Y-28673750D01*
X91873000Y-28673750D01*
X91714250Y-28515000D01*
X91023690Y-28515000D01*
X90790301Y-28611673D01*
X90611673Y-28790302D01*
X90524864Y-28999878D01*
X90226924Y-28728355D01*
X89816890Y-28558524D01*
X89587000Y-28679845D01*
X89333000Y-28679845D01*
X89103110Y-28558524D01*
X88693076Y-28728355D01*
X88264817Y-29118642D01*
X88190000Y-29277954D01*
X88115183Y-29118642D01*
X87686924Y-28728355D01*
X87276890Y-28558524D01*
X87047000Y-28679845D01*
X86793000Y-28679845D01*
X86563110Y-28558524D01*
X86153076Y-28728355D01*
X85724817Y-29118642D01*
X85478514Y-29643108D01*
X82127000Y-29643108D01*
X82127000Y-28127000D01*
X94283512Y-28127000D01*
X95873000Y-28443169D01*
X95873000Y-28443169D01*
G37*
X95873000Y-28443169D02*
X95873000Y-37873000D01*
X82127000Y-37873000D01*
X82127000Y-30356892D01*
X85478514Y-30356892D01*
X85724817Y-30881358D01*
X86153076Y-31271645D01*
X86563110Y-31441476D01*
X86793000Y-31320155D01*
X86793000Y-30127000D01*
X87047000Y-30127000D01*
X87047000Y-31320155D01*
X87276890Y-31441476D01*
X87686924Y-31271645D01*
X88115183Y-30881358D01*
X88190000Y-30722046D01*
X88264817Y-30881358D01*
X88693076Y-31271645D01*
X89103110Y-31441476D01*
X89333000Y-31320155D01*
X89333000Y-30127000D01*
X89587000Y-30127000D01*
X89587000Y-31320155D01*
X89816890Y-31441476D01*
X90226924Y-31271645D01*
X90524864Y-31000122D01*
X90611673Y-31209698D01*
X90790301Y-31388327D01*
X91023690Y-31485000D01*
X91714250Y-31485000D01*
X91873000Y-31326250D01*
X91873000Y-30127000D01*
X92127000Y-30127000D01*
X92127000Y-31326250D01*
X92285750Y-31485000D01*
X92976310Y-31485000D01*
X93209699Y-31388327D01*
X93388327Y-31209698D01*
X93485000Y-30976309D01*
X93485000Y-30285750D01*
X93326250Y-30127000D01*
X92127000Y-30127000D01*
X91873000Y-30127000D01*
X89587000Y-30127000D01*
X89333000Y-30127000D01*
X87047000Y-30127000D01*
X86793000Y-30127000D01*
X85599181Y-30127000D01*
X85478514Y-30356892D01*
X82127000Y-30356892D01*
X82127000Y-29643108D01*
X85478514Y-29643108D01*
X85599181Y-29873000D01*
X86793000Y-29873000D01*
X86793000Y-28679845D01*
X87047000Y-28679845D01*
X87047000Y-29873000D01*
X89333000Y-29873000D01*
X89333000Y-28679845D01*
X89587000Y-28679845D01*
X89587000Y-29873000D01*
X91873000Y-29873000D01*
X91873000Y-28673750D01*
X92127000Y-28673750D01*
X92127000Y-29873000D01*
X93326250Y-29873000D01*
X93485000Y-29714250D01*
X93485000Y-29023691D01*
X93388327Y-28790302D01*
X93209699Y-28611673D01*
X92976310Y-28515000D01*
X92285750Y-28515000D01*
X92127000Y-28673750D01*
X91873000Y-28673750D01*
X91714250Y-28515000D01*
X91023690Y-28515000D01*
X90790301Y-28611673D01*
X90611673Y-28790302D01*
X90524864Y-28999878D01*
X90226924Y-28728355D01*
X89816890Y-28558524D01*
X89587000Y-28679845D01*
X89333000Y-28679845D01*
X89103110Y-28558524D01*
X88693076Y-28728355D01*
X88264817Y-29118642D01*
X88190000Y-29277954D01*
X88115183Y-29118642D01*
X87686924Y-28728355D01*
X87276890Y-28558524D01*
X87047000Y-28679845D01*
X86793000Y-28679845D01*
X86563110Y-28558524D01*
X86153076Y-28728355D01*
X85724817Y-29118642D01*
X85478514Y-29643108D01*
X82127000Y-29643108D01*
X82127000Y-28127000D01*
X94283512Y-28127000D01*
X95873000Y-28443169D01*
G36*
X73873000Y-71605320D02*
X73731041Y-71262577D01*
X73355134Y-70847611D01*
X72849041Y-70608086D01*
X72627000Y-70729371D01*
X72627000Y-71873000D01*
X72647000Y-71873000D01*
X72647000Y-72127000D01*
X72627000Y-72127000D01*
X72627000Y-73270629D01*
X72849041Y-73391914D01*
X73355134Y-73152389D01*
X73731041Y-72737423D01*
X73873000Y-72394680D01*
X73873000Y-74873000D01*
X66565356Y-74873000D01*
X64762528Y-72349039D01*
X71108096Y-72349039D01*
X71268959Y-72737423D01*
X71644866Y-73152389D01*
X72150959Y-73391914D01*
X72373000Y-73270629D01*
X72373000Y-72127000D01*
X71230085Y-72127000D01*
X71108096Y-72349039D01*
X64762528Y-72349039D01*
X64263901Y-71650961D01*
X71108096Y-71650961D01*
X71230085Y-71873000D01*
X72373000Y-71873000D01*
X72373000Y-70729371D01*
X72150959Y-70608086D01*
X71644866Y-70847611D01*
X71268959Y-71262577D01*
X71108096Y-71650961D01*
X64263901Y-71650961D01*
X64127000Y-71459301D01*
X64127000Y-69127000D01*
X73873000Y-69127000D01*
X73873000Y-71605320D01*
X73873000Y-71605320D01*
G37*
X73873000Y-71605320D02*
X73731041Y-71262577D01*
X73355134Y-70847611D01*
X72849041Y-70608086D01*
X72627000Y-70729371D01*
X72627000Y-71873000D01*
X72647000Y-71873000D01*
X72647000Y-72127000D01*
X72627000Y-72127000D01*
X72627000Y-73270629D01*
X72849041Y-73391914D01*
X73355134Y-73152389D01*
X73731041Y-72737423D01*
X73873000Y-72394680D01*
X73873000Y-74873000D01*
X66565356Y-74873000D01*
X64762528Y-72349039D01*
X71108096Y-72349039D01*
X71268959Y-72737423D01*
X71644866Y-73152389D01*
X72150959Y-73391914D01*
X72373000Y-73270629D01*
X72373000Y-72127000D01*
X71230085Y-72127000D01*
X71108096Y-72349039D01*
X64762528Y-72349039D01*
X64263901Y-71650961D01*
X71108096Y-71650961D01*
X71230085Y-71873000D01*
X72373000Y-71873000D01*
X72373000Y-70729371D01*
X72150959Y-70608086D01*
X71644866Y-70847611D01*
X71268959Y-71262577D01*
X71108096Y-71650961D01*
X64263901Y-71650961D01*
X64127000Y-71459301D01*
X64127000Y-69127000D01*
X73873000Y-69127000D01*
X73873000Y-71605320D01*
G36*
X93667000Y-68873000D02*
X93687000Y-68873000D01*
X93687000Y-69127000D01*
X93667000Y-69127000D01*
X93667000Y-70320155D01*
X93896890Y-70441476D01*
X94306924Y-70271645D01*
X94735183Y-69881358D01*
X94802298Y-69738447D01*
X95029946Y-70079147D01*
X95511715Y-70401054D01*
X96080000Y-70514093D01*
X96648285Y-70401054D01*
X97130054Y-70079147D01*
X97357702Y-69738447D01*
X97424817Y-69881358D01*
X97853076Y-70271645D01*
X98263110Y-70441476D01*
X98493000Y-70320155D01*
X98493000Y-69127000D01*
X98473000Y-69127000D01*
X98473000Y-68873000D01*
X98493000Y-68873000D01*
X98493000Y-68853000D01*
X98747000Y-68853000D01*
X98747000Y-68873000D01*
X98767000Y-68873000D01*
X98767000Y-69127000D01*
X98747000Y-69127000D01*
X98747000Y-70320155D01*
X98976890Y-70441476D01*
X99373000Y-70277412D01*
X99373000Y-72000000D01*
X99383006Y-72049410D01*
X99411447Y-72091035D01*
X99453841Y-72118315D01*
X99500000Y-72127000D01*
X102873000Y-72127000D01*
X102873000Y-73515000D01*
X102285750Y-73515000D01*
X102127000Y-73673750D01*
X102127000Y-74873000D01*
X102147000Y-74873000D01*
X102147000Y-75127000D01*
X102127000Y-75127000D01*
X102127000Y-76326250D01*
X102285750Y-76485000D01*
X102873000Y-76485000D01*
X102873000Y-77873000D01*
X94567968Y-77873000D01*
X92843135Y-75285750D01*
X100515000Y-75285750D01*
X100515000Y-75976309D01*
X100611673Y-76209698D01*
X100790301Y-76388327D01*
X101023690Y-76485000D01*
X101714250Y-76485000D01*
X101873000Y-76326250D01*
X101873000Y-75127000D01*
X100673750Y-75127000D01*
X100515000Y-75285750D01*
X92843135Y-75285750D01*
X92627000Y-74961548D01*
X92627000Y-74023691D01*
X100515000Y-74023691D01*
X100515000Y-74714250D01*
X100673750Y-74873000D01*
X101873000Y-74873000D01*
X101873000Y-73673750D01*
X101714250Y-73515000D01*
X101023690Y-73515000D01*
X100790301Y-73611673D01*
X100611673Y-73790302D01*
X100515000Y-74023691D01*
X92627000Y-74023691D01*
X92627000Y-70138521D01*
X92773076Y-70271645D01*
X93183110Y-70441476D01*
X93413000Y-70320155D01*
X93413000Y-69127000D01*
X93393000Y-69127000D01*
X93393000Y-68873000D01*
X93413000Y-68873000D01*
X93413000Y-68853000D01*
X93667000Y-68853000D01*
X93667000Y-68873000D01*
X93667000Y-68873000D01*
G37*
X93667000Y-68873000D02*
X93687000Y-68873000D01*
X93687000Y-69127000D01*
X93667000Y-69127000D01*
X93667000Y-70320155D01*
X93896890Y-70441476D01*
X94306924Y-70271645D01*
X94735183Y-69881358D01*
X94802298Y-69738447D01*
X95029946Y-70079147D01*
X95511715Y-70401054D01*
X96080000Y-70514093D01*
X96648285Y-70401054D01*
X97130054Y-70079147D01*
X97357702Y-69738447D01*
X97424817Y-69881358D01*
X97853076Y-70271645D01*
X98263110Y-70441476D01*
X98493000Y-70320155D01*
X98493000Y-69127000D01*
X98473000Y-69127000D01*
X98473000Y-68873000D01*
X98493000Y-68873000D01*
X98493000Y-68853000D01*
X98747000Y-68853000D01*
X98747000Y-68873000D01*
X98767000Y-68873000D01*
X98767000Y-69127000D01*
X98747000Y-69127000D01*
X98747000Y-70320155D01*
X98976890Y-70441476D01*
X99373000Y-70277412D01*
X99373000Y-72000000D01*
X99383006Y-72049410D01*
X99411447Y-72091035D01*
X99453841Y-72118315D01*
X99500000Y-72127000D01*
X102873000Y-72127000D01*
X102873000Y-73515000D01*
X102285750Y-73515000D01*
X102127000Y-73673750D01*
X102127000Y-74873000D01*
X102147000Y-74873000D01*
X102147000Y-75127000D01*
X102127000Y-75127000D01*
X102127000Y-76326250D01*
X102285750Y-76485000D01*
X102873000Y-76485000D01*
X102873000Y-77873000D01*
X94567968Y-77873000D01*
X92843135Y-75285750D01*
X100515000Y-75285750D01*
X100515000Y-75976309D01*
X100611673Y-76209698D01*
X100790301Y-76388327D01*
X101023690Y-76485000D01*
X101714250Y-76485000D01*
X101873000Y-76326250D01*
X101873000Y-75127000D01*
X100673750Y-75127000D01*
X100515000Y-75285750D01*
X92843135Y-75285750D01*
X92627000Y-74961548D01*
X92627000Y-74023691D01*
X100515000Y-74023691D01*
X100515000Y-74714250D01*
X100673750Y-74873000D01*
X101873000Y-74873000D01*
X101873000Y-73673750D01*
X101714250Y-73515000D01*
X101023690Y-73515000D01*
X100790301Y-73611673D01*
X100611673Y-73790302D01*
X100515000Y-74023691D01*
X92627000Y-74023691D01*
X92627000Y-70138521D01*
X92773076Y-70271645D01*
X93183110Y-70441476D01*
X93413000Y-70320155D01*
X93413000Y-69127000D01*
X93393000Y-69127000D01*
X93393000Y-68873000D01*
X93413000Y-68873000D01*
X93413000Y-68853000D01*
X93667000Y-68853000D01*
X93667000Y-68873000D01*
M02*
