M48
;DRILL file {KiCad 4.0.7} date 03/26/19 14:41:32
;FORMAT={3:3/ absolute / metric / suppress leading zeros}
FMAT,2
METRIC,TZ
T1C0.400
T2C0.600
T3C0.800
T4C1.000
%
G90
G05
M71
T1
X63000Y-70000
X67000Y-72000
X68000Y-52000
X69500Y-49500
X73000Y-58000
X74000Y-54000
X79000Y-40000
X80000Y-52000
X80500Y-37000
X82000Y-57000
X82500Y-53500
X85000Y-63000
X86000Y-54500
X88000Y-63000
X88000Y-74000
X95000Y-73500
X98000Y-43000
X98000Y-73000
X100500Y-68000
X103000Y-58000
X105000Y-50000
X111000Y-54000
X115000Y-57000
T2
X107000Y-39000
X107000Y-41540
X108270Y-40270
T3
X68000Y-42000
X72500Y-72000
X75500Y-42000
X80000Y-72000
T4
X61000Y-53000
X61000Y-55540
X78000Y-30920
X78000Y-33460
X78000Y-36000
X84000Y-42000
X86920Y-30000
X87000Y-81000
X89460Y-30000
X89540Y-81000
X91000Y-66460
X91000Y-69000
X91600Y-42000
X92000Y-30000
X92080Y-81000
X93540Y-66460
X93540Y-69000
X96080Y-66460
X96080Y-69000
X98620Y-66460
X98620Y-69000
X99000Y-53000
X101540Y-53000
X102000Y-75000
X104080Y-53000
X104540Y-75000
X107080Y-75000
T0
M30
